<svg xmlns="http://www.w3.org/2000/svg" viewBox="3 3 42 42"><path d="M32.5 14a1.492 1.492 0 011.5 1.5v23a1.494 1.494 0 01-1.5 1.5h-17a1.494 1.494 0 01-1.5-1.5v-23a1.494 1.494 0 011.5-1.5h4.873l-3-6h2.25l3 6h2.751l3-6h2.25l-3 6zm-.5 2h-8.377l1.266 2.546A1.13 1.13 0 0125 19a1.009 1.009 0 01-1 1 1 1 0 01-.534-.149.974.974 0 01-.368-.4L21.375 16H16v22h16zM20 26a3.92 3.92 0 01.312-1.555 4.023 4.023 0 012.133-2.133 4.041 4.041 0 013.109 0 4.014 4.014 0 012.133 2.133A3.886 3.886 0 0128 26a3.937 3.937 0 01-.288 1.485 3.987 3.987 0 01-.8 1.266 5.7 5.7 0 011.288.949 5.907 5.907 0 01.968 1.251 6.388 6.388 0 01.616 1.461A5.786 5.786 0 0130 34h-2a3.877 3.877 0 00-.312-1.554 4 4 0 00-2.133-2.133 4.011 4.011 0 00-3.109 0 4.023 4.023 0 00-2.133 2.133A3.912 3.912 0 0020 33.995h-2a5.786 5.786 0 01.218-1.586 6.388 6.388 0 01.616-1.461A5.933 5.933 0 0119.8 29.7a5.694 5.694 0 011.288-.951 3.991 3.991 0 01-.8-1.267A3.945 3.945 0 0120 26zm6 0a1.92 1.92 0 00-.157-.781 2.039 2.039 0 00-1.061-1.062 2.024 2.024 0 00-1.563 0 2.048 2.048 0 00-1.061 1.062 2.021 2.021 0 000 1.562 2.042 2.042 0 001.061 1.061 2.024 2.024 0 001.563 0 2.032 2.032 0 001.061-1.061A1.927 1.927 0 0026 26z" fill="#919191"/></svg>