<svg version="1.1" id="Layer_1" xmlns="http://www.w3.org/2000/svg" x="0" y="0" style="enable-background:new 0 0 128 64" xml:space="preserve" width="128" height="64"><style>.st0{fill:#222}.st1{fill:#777}</style><g id="Layer2"><path class="st0" d="M66 8h60v40H98v4h8v4H86v-4h8v-4H66V8zm56 36V12H70v32h52z"/><path class="st0" d="m105.6 30.4-1.4-1.4-7.2 7.2V16h-2v20.2L87.8 29l-1.4 1.4L96 40z"/></g><g id="Layer1"><path class="st1" d="M2 8h60v40H34v4h8v4H22v-4h8v-4H2V8zm56 36V12H6v32h52z"/><path class="st1" d="M41.6 30.4 40.2 29 33 36.2V16h-2v20.2L23.8 29l-1.4 1.4L32 40z"/></g></svg>