<svg width="186" height="113" xmlns="http://www.w3.org/2000/svg"><g fill="none" fill-rule="evenodd"><path fill="#128912" d="m21.7 30.777-3.1-3.093 3.1-3.093 3.1 3.093z"/><path fill="#69E66E" d="m111.784 21.498-3.1-3.093 3.1-3.093 3.1 3.093z"/><path fill="#128912" d="m26.66 109.907 3.1 3.093 3.1-3.093-3.1-3.093z"/><path fill="#69E66E" d="m59.21 12.219-4.65-4.64 4.65-4.64 4.65 4.64zm58.9 97.688-4.65-4.64 4.65-4.639 4.65 4.64z"/><path fill="#FFB901" d="m85.25 6.29 6.2 6.187 6.2-6.186-6.2-6.186z"/><path fill="#128912" d="m0 61.707 6.2 6.186 6.2-6.186-6.2-6.187zM172.05 33.87l-6.2-6.186 6.2-6.186 6.2 6.186z"/><path d="M168.95 98.823a3.097 3.097 0 0 1-3.1 3.093 3.097 3.097 0 0 1-3.1-3.093 3.098 3.098 0 0 1 3.1-3.093c1.711 0 3.1 1.386 3.1 3.093" fill="#FF9A00"/><path d="M137.956 12.8a3.098 3.098 0 0 1-3.1 3.092 3.098 3.098 0 0 1-3.1-3.093 3.097 3.097 0 0 1 3.1-3.093c1.711 0 3.1 1.384 3.1 3.093M186 64.8a3.097 3.097 0 0 1-3.1 3.093 3.097 3.097 0 0 1-3.1-3.093 3.098 3.098 0 0 1 3.1-3.093c1.711 0 3.1 1.386 3.1 3.093" fill="#1E4424"/><path d="M79.36 95.73c0 3.417-2.776 6.186-6.2 6.186-3.424 0-6.2-2.77-6.2-6.186s2.776-6.186 6.2-6.186c3.424 0 6.2 2.77 6.2 6.186" fill="#FFB901"/></g></svg>